<?xml version="1.0" encoding="iso-8859-1"?>
<!-- Generator: Adobe Illustrator 19.0.0, SVG Export Plug-In . SVG Version: 6.00 Build 0)  -->
<svg version="1.1" id="Layer_1" xmlns="http://www.w3.org/2000/svg" xmlns:xlink="http://www.w3.org/1999/xlink" x="0px" y="0px"
	 viewBox="0 0 223.18 223.18" style="enable-background:new 0 0 223.18 223.18;" xml:space="preserve">
<g>
	<g>
		<g>
			<path d="M218.46,122.165c-1.063-1.128-2.288-2.027-3.576-2.816l-31.225-86.986c-0.462-1.282-1.539-2.247-2.865-2.565
				c-1.33-0.316-2.722,0.059-3.713,0.992l-20.352,19.214l5.547,5.875l15.862-14.974l27.217,75.821h-72.15
				c-5.015,0-9.434,1.973-12.441,5.556c-3.011,3.591-4.19,8.296-3.314,13.252l0.246,1.395h-12.211l0.246-1.393v-0.002
				c0.876-4.956-0.304-9.661-3.314-13.252c-3.006-3.583-7.426-5.556-12.441-5.556H18.101l27.214-75.821l15.862,14.974l5.547-5.875
				L46.372,30.79c-0.99-0.935-2.387-1.31-3.713-0.992c-1.326,0.318-2.403,1.282-2.865,2.565L8.642,119.156
				c-1.419,0.825-2.765,1.781-3.921,3.006c-3.314,3.518-4.979,8.175-4.688,13.114l2.012,34.268
				c0.777,13.206,12.188,23.948,25.434,23.948h44.417c13.017,0,25.442-10.409,27.699-23.205l4.463-25.28h15.063l4.46,25.282
				c2.261,12.794,14.686,23.203,27.699,23.203h44.421c13.246,0,24.653-10.742,25.43-23.948l2.016-34.267
				C223.44,130.338,221.775,125.682,218.46,122.165z M97.777,134.13l-6.136,34.754c-1.582,8.959-10.622,16.528-19.744,16.528H27.48
				c-9.048,0-16.836-7.331-17.369-16.341l-2.012-34.27c-0.158-2.695,0.73-5.214,2.501-7.095c1.764-1.87,4.206-2.9,6.881-2.9h72.495
				c2.584,0,4.806,0.949,6.25,2.669C97.678,129.204,98.227,131.567,97.777,134.13z M215.083,134.802l-2.016,34.269
				c-0.533,9.01-8.322,16.341-17.365,16.341h-44.421c-9.118,0-18.158-7.57-19.744-16.528l-6.132-34.754
				c-0.45-2.563,0.099-4.926,1.551-6.655c1.444-1.72,3.665-2.669,6.25-2.669h72.491c2.675,0,5.122,1.03,6.885,2.9
				C214.354,129.588,215.241,132.108,215.083,134.802z"/>
			<rect x="171.471" y="173.291" width="26.263" height="8.081"/>
			<rect x="26.016" y="173.291" width="26.263" height="8.081"/>
		</g>
	</g>
</g>
<g>
</g>
<g>
</g>
<g>
</g>
<g>
</g>
<g>
</g>
<g>
</g>
<g>
</g>
<g>
</g>
<g>
</g>
<g>
</g>
<g>
</g>
<g>
</g>
<g>
</g>
<g>
</g>
<g>
</g>
</svg>
